<?xml version="1.0" standalone="no"?>
<!DOCTYPE svg PUBLIC "-//W3C//DTD SVG 20010904//EN"
 "http://www.w3.org/TR/2001/REC-SVG-20010904/DTD/svg10.dtd">
<svg version="1.0" xmlns="http://www.w3.org/2000/svg"
 width="512.000000pt" height="512.000000pt" viewBox="0 0 512.000000 512.000000"
 preserveAspectRatio="xMidYMid meet">
<metadata>
Created by potrace 1.11, written by Peter Selinger 2001-2013
</metadata>
<g transform="translate(0.000000,512.000000) scale(0.100000,-0.100000)"
fill="#000000" stroke="none">
<path d="M2429 4556 c-2 -2 -29 -7 -59 -10 -50 -6 -127 -18 -190 -31 -14 -3
-36 -7 -50 -10 -14 -2 -74 -20 -133 -40 -576 -186 -1034 -622 -1242 -1180 -85
-229 -119 -424 -119 -685 0 -175 14 -293 59 -486 26 -111 113 -329 175 -436
22 -39 40 -75 40 -82 0 -7 -52 -165 -115 -352 -136 -399 -202 -593 -220 -651
l-14 -42 52 15 c29 8 59 18 67 21 8 3 20 7 25 9 6 1 60 18 120 37 259 84 442
142 629 201 l198 62 72 -38 c139 -72 367 -147 546 -177 214 -37 462 -36 683 4
739 135 1337 672 1541 1384 29 99 32 113 53 241 25 144 23 485 -2 610 -3 14
-8 41 -11 60 -3 19 -17 78 -31 130 -179 678 -727 1215 -1418 1390 -60 16 -135
31 -165 35 -30 4 -66 10 -80 12 -31 6 -406 14 -411 9z m381 -321 c381 -53 691
-207 961 -475 234 -233 386 -510 450 -824 99 -480 -18 -962 -327 -1351 -511
-643 -1446 -809 -2148 -382 l-59 36 -51 -19 c-56 -20 -386 -124 -426 -135 -14
-3 -34 -10 -45 -15 -29 -12 -86 -30 -98 -30 -5 0 -6 8 -2 17 4 10 8 25 10 33
2 8 45 135 95 283 l92 268 -51 78 c-116 182 -207 409 -236 591 -3 19 -7 46
-10 60 -12 61 -15 114 -15 240 1 131 2 150 15 236 30 203 91 379 196 564 162
286 417 525 714 669 172 83 375 142 540 157 39 4 72 8 74 10 6 5 271 -4 321
-11z"/>
<path d="M1891 3492 c-37 -6 -154 -128 -189 -197 -40 -81 -54 -135 -58 -231
-7 -185 57 -337 260 -613 179 -245 410 -455 629 -571 167 -88 467 -186 597
-195 49 -3 192 35 253 67 87 47 170 130 190 193 28 85 38 189 22 216 -11 17
-408 207 -449 214 -19 4 -41 3 -49 -2 -8 -4 -41 -42 -74 -84 -92 -115 -137
-159 -163 -159 -39 0 -260 114 -349 180 -45 33 -112 91 -147 128 -108 110
-224 273 -224 316 0 10 27 49 60 88 64 74 100 134 100 168 0 33 -170 433 -196
459 -21 22 -32 25 -106 26 -46 1 -94 -1 -107 -3z"/>
</g>
</svg>
